<svg width="67" height="70" viewBox="0 0 67 70" fill="none" xmlns="http://www.w3.org/2000/svg">
<mask id="path-1-inside-1_2_3" fill="white">
<path d="M55.5778 12.8958C56.7021 11.688 57.2643 11.0841 57.449 10.3203C57.5979 9.70453 57.5129 8.89293 57.2397 8.32134C56.9008 7.61234 56.3079 7.19576 55.1222 6.36258C50.3655 3.02029 44.8285 0.900381 39.0032 0.229692C31.5808 -0.624874 24.0797 0.918202 17.5972 4.63317C11.1148 8.34815 5.99133 14.04 2.97631 20.8761C-0.0387143 27.7123 -0.787027 35.3338 0.840847 42.6258C2.46872 49.9177 6.38735 56.4974 12.0234 61.4022C17.6595 66.307 24.7173 69.2796 32.1642 69.8849C39.6111 70.4903 47.0563 68.6967 53.4106 64.7666C58.3976 61.6821 62.5073 57.4087 65.3909 52.3608C66.1097 51.1024 66.4691 50.4732 66.4744 49.6874C66.4786 49.0539 66.2103 48.2832 65.8136 47.7892C65.3216 47.1765 64.556 46.869 63.0247 46.2541L58.4684 44.4244C56.9429 43.8117 56.1801 43.5054 55.5706 43.5171C54.9372 43.5292 54.5892 43.6316 54.0504 43.9648C53.5318 44.2853 52.9287 45.1372 51.7223 46.8408C50.1445 49.0691 48.1276 50.973 45.7781 52.4262C42.0581 54.727 37.6995 55.777 33.3398 55.4226C28.9802 55.0682 24.8484 53.328 21.5489 50.4566C18.2493 47.5852 15.9553 43.7333 15.0023 39.4643C14.0493 35.1954 14.4873 30.7335 16.2524 26.7315C18.0175 22.7294 21.0169 19.3973 24.8119 17.2224C28.6069 15.0476 32.9983 14.1442 37.3436 14.6445C40.0881 14.9605 42.7232 15.8259 45.0989 17.1716C46.9152 18.2004 47.8234 18.7148 48.429 18.7844C49.0584 18.8568 49.4169 18.8015 49.9954 18.5431C50.5519 18.2944 51.112 17.6928 52.2322 16.4896L55.5778 12.8958Z"/>
</mask>
<path d="M55.5778 12.8958C56.7021 11.688 57.2643 11.0841 57.449 10.3203C57.5979 9.70453 57.5129 8.89293 57.2397 8.32134C56.9008 7.61234 56.3079 7.19576 55.1222 6.36258C50.3655 3.02029 44.8285 0.900381 39.0032 0.229692C31.5808 -0.624874 24.0797 0.918202 17.5972 4.63317C11.1148 8.34815 5.99133 14.04 2.97631 20.8761C-0.0387143 27.7123 -0.787027 35.3338 0.840847 42.6258C2.46872 49.9177 6.38735 56.4974 12.0234 61.4022C17.6595 66.307 24.7173 69.2796 32.1642 69.8849C39.6111 70.4903 47.0563 68.6967 53.4106 64.7666C58.3976 61.6821 62.5073 57.4087 65.3909 52.3608C66.1097 51.1024 66.4691 50.4732 66.4744 49.6874C66.4786 49.0539 66.2103 48.2832 65.8136 47.7892C65.3216 47.1765 64.556 46.869 63.0247 46.2541L58.4684 44.4244C56.9429 43.8117 56.1801 43.5054 55.5706 43.5171C54.9372 43.5292 54.5892 43.6316 54.0504 43.9648C53.5318 44.2853 52.9287 45.1372 51.7223 46.8408C50.1445 49.0691 48.1276 50.973 45.7781 52.4262C42.0581 54.727 37.6995 55.777 33.3398 55.4226C28.9802 55.0682 24.8484 53.328 21.5489 50.4566C18.2493 47.5852 15.9553 43.7333 15.0023 39.4643C14.0493 35.1954 14.4873 30.7335 16.2524 26.7315C18.0175 22.7294 21.0169 19.3973 24.8119 17.2224C28.6069 15.0476 32.9983 14.1442 37.3436 14.6445C40.0881 14.9605 42.7232 15.8259 45.0989 17.1716C46.9152 18.2004 47.8234 18.7148 48.429 18.7844C49.0584 18.8568 49.4169 18.8015 49.9954 18.5431C50.5519 18.2944 51.112 17.6928 52.2322 16.4896L55.5778 12.8958Z" stroke="url(#paint0_linear_2_3)" stroke-width="24" mask="url(#path-1-inside-1_2_3)"/>
<defs>
<linearGradient id="paint0_linear_2_3" x1="35" y1="0" x2="35" y2="70" gradientUnits="userSpaceOnUse">
<stop stop-color="#B7B7FF"/>
<stop offset="1" stop-color="#3E3DED"/>
</linearGradient>
</defs>
</svg>
